<svg xmlns="http://www.w3.org/2000/svg" viewBox="0 0 512 512">
  <rect width="512" height="512" fill="#137fec" rx="80"/>
  <g transform="translate(256, 256)">
    <!-- Material Symbols "style" icon (poker cards) in white -->
    <path fill="#ffffff" transform="translate(-120, -120) scale(10)" d="M3.5,18.5l8,0c0.83,0,1.5-0.67,1.5-1.5v0c0-0.83-0.67-1.5-1.5-1.5h-8C2.67,15.5,2,16.17,2,17v0C2,17.83,2.67,18.5,3.5,18.5z M3.5,13.5h8c0.83,0,1.5-0.67,1.5-1.5v0c0-0.83-0.67-1.5-1.5-1.5h-8C2.67,10.5,2,11.17,2,12v0C2,12.83,2.67,13.5,3.5,13.5z M2,7v0c0,0.83,0.67,1.5,1.5,1.5h8C12.33,8.5,13,7.83,13,7v0c0-0.83-0.67-1.5-1.5-1.5h-8C2.67,5.5,2,6.17,2,7z M20.5,5.5h-8C11.67,5.5,11,6.17,11,7v0c0,0.83,0.67,1.5,1.5,1.5h8c0.83,0,1.5-0.67,1.5-1.5v0C22,6.17,21.33,5.5,20.5,5.5z M11,12v0c0,0.83,0.67,1.5,1.5,1.5h8c0.83,0,1.5-0.67,1.5-1.5v0c0-0.83-0.67-1.5-1.5-1.5h-8C11.67,10.5,11,11.17,11,12z M20.5,15.5h-8c-0.83,0-1.5,0.67-1.5,1.5v0c0,0.83,0.67,1.5,1.5,1.5h8c0.83,0,1.5-0.67,1.5-1.5v0C22,16.17,21.33,15.5,20.5,15.5z"/>
  </g>
</svg>
